<?xml version="1.0" standalone="no"?>
<!DOCTYPE svg PUBLIC "-//W3C//DTD SVG 20010904//EN"
 "http://www.w3.org/TR/2001/REC-SVG-20010904/DTD/svg10.dtd">
<svg version="1.0" xmlns="http://www.w3.org/2000/svg"
 width="2362.000000pt" height="2362.000000pt" viewBox="0 0 2362.000000 2362.000000"
 preserveAspectRatio="xMidYMid meet">
<metadata>
Created by potrace 1.14, written by Peter Selinger 2001-2017
</metadata>
<g transform="translate(0.000000,2362.000000) scale(0.100000,-0.100000)"
fill="#000000" stroke="none">
<path d="M11632 18829 c-77 -161 -6827 -14059 -6858 -14122 l-24 -47 756 2
756 3 2726 5613 c1499 3087 2729 5609 2732 5605 10 -11 5020 -9998 5020
-10007 0 -3 -1165 -6 -2590 -6 l-2590 0 0 -605 0 -605 3655 0 3655 0 -154 308
c-928 1855 -7010 13969 -7016 13976 -5 5 -35 -46 -68 -115z"/>
</g>
</svg>
